<svg width="416" height="160" viewBox="0 0 416 160" fill="none" xmlns="http://www.w3.org/2000/svg">
<g clip-path="url(#clip0_3207_11442)">
<g filter="url(#filter0_d_3207_11442)">
<rect x="25.4219" y="28.396" width="249.249" height="143.299" rx="12.8125" transform="rotate(-2.21554 25.4219 28.396)" fill="white" shape-rendering="crispEdges"/>
<path d="M60.0715 55.3137C60.079 55.5061 59.8787 55.6223 59.4707 55.6622C57.2843 55.819 55.7735 55.998 54.938 56.1989C54.1016 56.3758 53.3907 56.6804 52.8051 57.1126C52.6645 57.2144 52.534 57.2677 52.4137 57.2723C52.3175 57.276 52.2657 57.1817 52.2582 56.9892C52.2452 56.6524 52.247 56.3874 52.2636 56.194C52.2793 55.9765 52.2815 55.7235 52.2704 55.4348C52.262 55.2183 52.2425 55.0263 52.212 54.8589C50.7578 56.5052 49.1407 57.3628 47.3606 57.4317C45.7729 57.4931 44.5024 57.0363 43.5492 56.0613C42.9476 55.4582 42.6143 54.3147 42.5492 52.6307L42.45 50.0688C42.4389 49.7801 42.4234 49.07 42.4038 47.9384C42.36 46.8078 42.2995 45.2441 42.2223 43.2475C42.2018 42.7182 42.105 42.3967 41.932 42.283C41.783 42.1683 41.3472 42.1129 40.6246 42.1167C39.9982 42.1169 39.6817 42.0327 39.6752 41.8644C39.6678 41.6719 39.8325 41.5692 40.1692 41.5561L40.5662 41.5408C40.927 41.5268 41.4692 41.5299 42.1927 41.5501C42.9394 41.5453 43.4451 41.5378 43.7097 41.5276C43.7578 41.5257 43.9979 41.5044 44.43 41.4636C44.8861 41.4218 45.5472 41.3842 46.4132 41.3507L47.0988 41.3242L47.2496 45.2213C47.3212 47.0736 47.3497 48.4337 47.3351 49.3016C47.3446 50.1685 47.347 50.5419 47.3423 50.4216C47.4401 52.9475 47.6574 54.5171 47.9943 55.1304C48.3553 55.7429 48.8846 56.0356 49.5822 56.0086C50.3761 55.9779 51.1046 55.504 51.7678 54.5869C51.974 54.3139 52.0841 54.0447 52.0979 53.7791C52.1349 53.4886 52.1324 52.8021 52.0905 51.7195L51.8504 45.5131C51.7824 43.757 51.7174 42.6994 51.6554 42.3405C51.5896 41.8853 51.28 41.6684 50.7267 41.6898L49.7164 41.7289C49.3796 41.7419 49.2075 41.6522 49.2 41.4597C49.1945 41.3154 49.8412 41.2181 51.1402 41.1678C52.2708 41.1241 54.0626 41.0427 56.5153 40.9237C56.5267 41.8388 56.5714 43.3067 56.6496 45.3274L56.933 52.6525C56.9767 53.7831 57.0268 54.4558 57.0833 54.6704C57.1389 54.861 57.3244 54.9863 57.6399 55.0464C57.8583 55.0861 58.5087 55.085 59.5913 55.0432C59.904 55.0311 60.0641 55.1212 60.0715 55.3137Z" fill="black"/>
<path d="M73.5497 40.5177C73.5553 40.662 73.2699 40.7574 72.6935 40.8038C72.0449 40.853 71.5934 41.015 71.339 41.2898C71.1087 41.5638 70.8105 42.2619 70.4443 43.3843C70.081 44.5789 69.6321 46.0538 69.0977 47.8091L66.4473 55.8982C66.2763 56.4589 66.0705 56.744 65.8299 56.7533C65.6134 56.7616 65.2441 56.2459 64.7221 55.206C64.224 54.1653 62.5009 50.4133 59.5525 43.9503C58.9999 42.7429 58.6722 42.057 58.5694 41.8923C58.3408 41.5879 57.7935 41.4525 56.9275 41.486C56.5426 41.5009 56.3464 41.4121 56.339 41.2197C56.3315 41.0272 56.4601 40.9259 56.7247 40.9156C56.9412 40.9073 57.1342 40.9119 57.3035 40.9294C57.6921 41.0107 59.0281 40.9831 61.3116 40.8466L64.9172 40.6348C65.0606 40.6052 65.2526 40.5857 65.4932 40.5764C65.7578 40.5662 65.8934 40.6453 65.8999 40.8136C65.9045 40.9339 65.379 41.0506 64.3233 41.1637C64.0356 41.199 63.8968 41.3489 63.9071 41.6135C63.9183 41.9022 64.3631 43.1257 65.2416 45.2841C66.1193 47.4184 66.8992 49.2072 67.5814 50.6504C69.4149 45.1106 70.321 42.064 70.2996 41.5107C70.2828 41.0777 69.8178 40.8909 68.9046 40.9504C68.2801 40.9986 67.9641 40.9265 67.9567 40.7341C67.9511 40.5897 68.0445 40.5138 68.237 40.5064L69.8608 40.4436C70.1735 40.4315 70.4982 40.4189 70.835 40.4059C71.1968 40.416 71.4017 40.4201 71.4498 40.4182C71.6423 40.4108 71.9305 40.3876 72.3145 40.3486C72.7225 40.3088 73.0227 40.2851 73.2152 40.2777C73.4317 40.2693 73.5432 40.3493 73.5497 40.5177Z" fill="black"/>
<rect x="78.46" y="40.3639" width="25.7111" height="15.6" rx="2.02222" transform="rotate(-2.21554 78.46 40.3639)" stroke="#232525" stroke-width="0.577778"/>
<path d="M85.6904 48.4063C87.4809 48.3371 88.4956 47.5288 88.4374 46.0234C88.3791 44.5179 87.3046 43.7804 85.5034 43.85L82.3594 43.9717L82.6385 51.1856L84.024 51.132L83.9212 48.4748L85.6904 48.4063ZM83.8805 47.424L83.7859 44.979L85.4272 44.9155C86.4717 44.875 87.0092 45.2489 87.0412 46.0774C87.0729 46.8958 86.5663 47.3201 85.5218 47.3605L83.8805 47.424Z" fill="#232525"/>
<path d="M93.0086 50.7844L94.3195 50.7337C94.2183 50.3228 94.1817 49.9295 94.1633 49.4547L94.0867 47.4744C94.0351 46.1407 93.1677 45.5166 91.697 45.5735C90.3648 45.625 89.4839 46.3067 89.4092 47.4125L90.7201 47.3618C90.7444 46.8853 91.0946 46.558 91.6915 46.5349C92.3096 46.511 92.7263 46.7985 92.7506 47.4249L92.76 47.6674L91.1466 47.9018C90.0536 48.0655 89.2174 48.5228 89.2572 49.5534C89.2932 50.4829 90.0821 51.0089 91.1372 50.9681C92.0005 50.9347 92.6696 50.5749 92.9028 49.979C92.9125 50.2316 92.9444 50.5036 93.0086 50.7844ZM91.4754 50.0545C90.9319 50.0755 90.6237 49.8345 90.608 49.4303C90.5873 48.8948 91.0196 48.7567 91.5924 48.6637L92.7916 48.4858L92.8037 48.799C92.835 49.6072 92.1788 50.0273 91.4754 50.0545Z" fill="#232525"/>
<path d="M97.2435 50.6105C96.9831 51.3288 96.7556 51.5198 96.2014 51.5412C96.0842 51.5458 95.9989 51.5491 95.8379 51.5249L95.8758 52.505C96.0688 52.5279 96.3254 52.5382 96.5066 52.5312C97.6466 52.4769 98.2562 51.9575 98.7181 50.6546L100.626 45.3494L99.2728 45.4018L97.9943 49.3267L97.973 49.3275L96.3206 45.516L94.935 45.5696L97.2435 50.6105Z" fill="#232525"/>
<rect x="196.445" y="35.5991" width="64.9158" height="16" rx="8" transform="rotate(-2.21554 196.445 35.5991)" fill="url(#paint0_linear_3207_11442)"/>
<path fill-rule="evenodd" clip-rule="evenodd" d="M209.396 38.8551C209.595 38.9097 209.737 39.0874 209.745 39.2943L209.836 41.6639L211.732 41.5905C211.909 41.5837 212.074 41.6758 212.162 41.8293C212.25 41.9829 212.245 42.1725 212.149 42.3212L209.015 47.1887C208.903 47.3628 208.691 47.4441 208.491 47.3895C208.291 47.3349 208.15 47.1572 208.142 46.9503L208.051 44.5807L206.155 44.6541C205.978 44.6609 205.812 44.5689 205.725 44.4153C205.637 44.2617 205.642 44.0721 205.738 43.9234L208.872 39.0559C208.984 38.8818 209.196 38.8006 209.396 38.8551Z" fill="black"/>
<path d="M217.071 43.8323L218.241 43.787C218.357 44.6704 219.137 44.9423 219.95 44.9109C220.727 44.8808 221.317 44.5102 221.291 43.8521C221.273 43.3768 220.979 43.1227 220.188 43.0069L218.982 42.8338C218.016 42.6973 217.221 42.2704 217.177 41.1279C217.132 39.9671 218.124 39.1232 219.55 39.068C221.104 39.0079 222.062 39.6482 222.238 40.868L221.095 40.9122C220.988 40.2756 220.408 39.9411 219.594 39.9725C218.808 40.0029 218.331 40.4333 218.353 41.0092C218.374 41.5484 218.719 41.709 219.428 41.8189L220.699 42.0168C221.776 42.1765 222.436 42.6819 222.477 43.733C222.523 44.9212 221.466 45.7493 220.021 45.8052C218.468 45.8653 217.245 45.2627 217.071 43.8323ZM226.524 45.4438C226.468 45.1896 226.44 44.9435 226.431 44.7151C226.233 45.2537 225.659 45.5779 224.919 45.6065C224.014 45.6416 223.337 45.1643 223.304 44.3234C223.268 43.3912 223.984 42.979 224.921 42.8329L226.305 42.6238L226.296 42.4044C226.274 41.8377 225.916 41.577 225.386 41.5975C224.874 41.6173 224.575 41.9127 224.555 42.3436L223.431 42.3871C223.493 41.387 224.247 40.772 225.389 40.7278C226.651 40.679 227.396 41.2451 227.442 42.4516L227.512 44.243C227.528 44.6726 227.56 45.0284 227.648 45.4003L226.524 45.4438ZM225.207 44.7807C225.811 44.7574 226.373 44.3786 226.344 43.6474L226.333 43.3641L225.305 43.5229C224.814 43.606 224.444 43.7301 224.462 44.2146C224.476 44.5802 224.741 44.7987 225.207 44.7807ZM230.12 45.3046L228.113 40.7323L229.292 40.6866L230.716 44.1374L230.734 44.1367L231.86 40.5873L233.003 40.5431L231.4 45.2551L230.12 45.3046ZM237.985 43.5541C237.823 44.5581 237.013 45.1478 235.952 45.1888C234.6 45.2412 233.569 44.3749 233.51 42.8576C233.451 41.3404 234.43 40.378 235.737 40.3275C237.19 40.2712 237.928 41.3503 237.975 42.5842L237.99 42.9589L234.654 43.088C234.759 43.9077 235.197 44.3576 235.919 44.3297C236.449 44.3092 236.769 44.0497 236.907 43.5958L237.985 43.5541ZM235.771 41.1957C235.158 41.2194 234.761 41.6101 234.661 42.328L236.845 42.2434C236.823 41.6676 236.474 41.1685 235.771 41.1957ZM238.544 40.2097L238.513 39.4054C239.628 39.3622 240.055 39.0436 240.185 38.3613L241.016 38.3291L241.269 44.8733L240.063 44.92L239.879 40.1581L238.544 40.2097ZM244.912 41.2448C244.336 41.2671 243.963 41.5653 243.775 41.893L242.687 41.9351L242.921 38.2737L246.832 38.1224L246.87 39.0821L243.826 39.1998L243.718 40.9066C243.954 40.6228 244.456 40.3471 245.069 40.3234C246.421 40.2711 247.327 41.2063 247.377 42.4859C247.425 43.7472 246.559 44.7785 245.051 44.8368C243.579 44.8938 242.606 44.0985 242.457 42.841L243.663 42.7944C243.744 43.4777 244.248 43.9525 245.016 43.9228C245.857 43.8903 246.244 43.2529 246.216 42.54C246.188 41.8179 245.762 41.212 244.912 41.2448ZM248.07 39.4842C248.037 38.6433 248.697 37.9404 249.528 37.9082C250.36 37.8761 251.063 38.5263 251.095 39.3671C251.127 40.1989 250.477 40.9014 249.645 40.9336C248.814 40.9657 248.102 40.3159 248.07 39.4842ZM253.115 37.8793L253.929 37.8478L249.858 44.5319L249.044 44.5633L253.115 37.8793ZM248.783 39.4566C248.801 39.9227 249.18 40.265 249.619 40.2481C250.058 40.2311 250.409 39.8605 250.391 39.3944C250.373 38.9282 249.994 38.5768 249.555 38.5937C249.116 38.6107 248.765 38.9905 248.783 39.4566ZM251.87 43.0627C251.838 42.231 252.487 41.5193 253.319 41.4871C254.151 41.4549 254.854 42.1143 254.886 42.946C254.918 43.7869 254.268 44.4894 253.437 44.5216C252.605 44.5537 251.902 43.9036 251.87 43.0627ZM252.574 43.0355C252.592 43.5016 252.971 43.853 253.41 43.8361C253.858 43.8187 254.2 43.4394 254.182 42.9732C254.164 42.5071 253.793 42.1553 253.346 42.1726C252.907 42.1896 252.555 42.5693 252.574 43.0355Z" fill="black"/>
<path fill-rule="evenodd" clip-rule="evenodd" d="M254.305 138.365L254.487 143.084L261.872 146.975L261.839 146.134L262.988 146.739L263.042 148.137C263.058 148.546 262.777 148.724 262.414 148.533L254.045 144.123C253.683 143.932 253.376 143.445 253.36 143.035L253.134 137.203C253.118 136.794 253.399 136.617 253.762 136.808L262.131 141.218C262.494 141.409 262.8 141.896 262.816 142.305L262.864 143.531L261.715 142.926L261.689 142.256L254.305 138.365Z" fill="#136D58"/>
<path fill-rule="evenodd" clip-rule="evenodd" d="M255.794 135.607C255.779 135.197 256.06 135.02 256.422 135.211L264.791 139.621C265.154 139.812 265.461 140.299 265.476 140.709L265.702 146.54C265.718 146.95 265.437 147.127 265.074 146.936L256.705 142.526C256.343 142.335 256.036 141.848 256.02 141.439L255.967 140.067L257.116 140.673L257.148 141.488L264.532 145.379L264.349 140.659L256.965 136.768L256.999 137.664L255.851 137.058L255.794 135.607Z" fill="#136D58"/>
</g>
<g filter="url(#filter1_d_3207_11442)">
<rect x="142.133" y="64.0151" width="249.249" height="143.299" rx="12.8125" transform="rotate(3.10723 142.133 64.0151)" fill="white" shape-rendering="crispEdges"/>
<path d="M174.135 94.0309C174.124 94.2232 173.914 94.3203 173.504 94.3221C171.313 94.2755 169.792 94.3135 168.941 94.4361C168.092 94.5346 167.356 94.7719 166.733 95.148C166.583 95.2363 166.449 95.2772 166.328 95.2707C166.232 95.2654 166.189 95.1667 166.2 94.9744C166.218 94.6378 166.244 94.3741 166.279 94.1831C166.315 93.968 166.34 93.7163 166.356 93.4278C166.368 93.2114 166.366 93.0185 166.351 92.8489C164.751 94.3532 163.061 95.0571 161.282 94.9606C159.696 94.8744 158.473 94.3018 157.614 93.2426C157.071 92.5862 156.846 91.4167 156.937 89.734L157.076 87.1739C157.092 86.8854 157.142 86.1769 157.227 85.0484C157.289 83.9186 157.374 82.3561 157.482 80.3609C157.511 79.832 157.444 79.5029 157.282 79.3736C157.145 79.2456 156.716 79.15 155.996 79.0868C155.372 79.0288 155.065 78.9157 155.074 78.7474C155.085 78.5551 155.258 78.4681 155.595 78.4864L155.991 78.5079C156.352 78.5275 156.891 78.5809 157.61 78.6681C158.354 78.7326 158.858 78.772 159.122 78.7864C159.171 78.789 159.412 78.79 159.846 78.7895C160.304 78.7902 160.965 78.8141 161.831 78.8611L162.516 78.8983L162.304 82.7925C162.204 84.6435 162.106 86.0004 162.011 86.8632C161.94 87.7273 161.908 88.0992 161.914 87.979C161.777 90.5031 161.848 92.0861 162.127 92.7281C162.429 93.3713 162.929 93.7119 163.626 93.7497C164.42 93.7928 165.189 93.3885 165.934 92.537C166.165 92.2843 166.3 92.0264 166.338 91.7632C166.402 91.4774 166.463 90.7936 166.522 89.7119L166.858 83.5099C166.954 81.7551 166.987 80.696 166.958 80.3329C166.935 79.8735 166.647 79.6288 166.094 79.5988L165.085 79.544C164.748 79.5257 164.585 79.4205 164.595 79.2281C164.603 79.0839 165.256 79.047 166.554 79.1175C167.684 79.1788 169.476 79.264 171.929 79.3731C171.855 80.2853 171.764 81.751 171.654 83.7702L171.257 91.09C171.195 92.2198 171.183 92.8942 171.219 93.1132C171.257 93.3081 171.43 93.4501 171.739 93.5392C171.952 93.599 172.6 93.6582 173.682 93.717C173.994 93.7339 174.145 93.8386 174.135 94.0309Z" fill="black"/>
<path d="M188.928 80.549C188.92 80.6932 188.627 80.7617 188.048 80.7544C187.398 80.7432 186.934 80.8627 186.655 81.1127C186.4 81.3641 186.038 82.0316 185.57 83.1152C185.097 84.2709 184.513 85.6978 183.818 87.396L180.429 95.2043C180.207 95.7468 179.975 96.0115 179.735 95.9984C179.519 95.9867 179.199 95.4389 178.775 94.3551C178.376 93.2726 177.008 89.377 174.672 82.6683C174.234 81.4149 173.971 80.7015 173.884 80.528C173.685 80.2038 173.153 80.0181 172.287 79.9712C171.903 79.9503 171.715 79.8437 171.726 79.6514C171.736 79.4591 171.874 79.3701 172.138 79.3844C172.355 79.3962 172.546 79.4186 172.713 79.4518C173.093 79.5689 174.425 79.6653 176.712 79.7412L180.321 79.8648C180.467 79.8486 180.66 79.847 180.9 79.8601C181.165 79.8744 181.292 79.9658 181.283 80.134C181.277 80.2542 180.743 80.3217 179.681 80.3364C179.391 80.3447 179.239 80.4812 179.225 80.7456C179.209 81.034 179.539 82.2936 180.213 84.5241C180.889 86.7307 181.5 88.5841 182.045 90.0844C184.384 84.7385 185.569 81.7892 185.599 81.2363C185.623 80.8036 185.177 80.5744 184.262 80.5489C183.636 80.539 183.328 80.4379 183.339 80.2456C183.346 80.1014 183.446 80.0345 183.639 80.0449L185.261 80.133C185.574 80.15 185.898 80.1676 186.235 80.1858C186.594 80.2295 186.798 80.2526 186.846 80.2552C187.038 80.2656 187.327 80.2693 187.713 80.2661C188.123 80.2642 188.424 80.2685 188.617 80.279C188.833 80.2907 188.937 80.3807 188.928 80.549Z" fill="black"/>
<rect x="193.831" y="80.8515" width="25.7111" height="15.6" rx="2.02222" transform="rotate(3.10723 193.831 80.8515)" stroke="#232525" stroke-width="0.577778"/>
<path d="M200.284 89.5297C202.073 89.6268 203.159 88.9162 203.24 87.4118C203.322 85.9075 202.321 85.0734 200.521 84.9757L197.379 84.8052L196.988 92.0139L198.372 92.0891L198.516 89.4337L200.284 89.5297ZM198.573 88.3837L198.706 85.9404L200.346 86.0295C201.39 86.0861 201.89 86.5082 201.845 87.3361C201.801 88.1539 201.257 88.5294 200.213 88.4728L198.573 88.3837Z" fill="#232525"/>
<path d="M207.35 92.5764L208.66 92.6475C208.597 92.229 208.598 91.8341 208.623 91.3595L208.731 89.3807C208.803 88.048 207.997 87.346 206.528 87.2663C205.196 87.194 204.256 87.791 204.079 88.8851L205.389 88.9562C205.457 88.484 205.837 88.1907 206.433 88.2231C207.051 88.2566 207.439 88.5815 207.405 89.2074L207.392 89.4498L205.764 89.5335C204.66 89.5951 203.785 89.9729 203.729 91.0027C203.679 91.9316 204.415 92.5285 205.47 92.5857C206.332 92.6326 207.032 92.3364 207.32 91.7647C207.306 92.0171 207.312 92.2908 207.35 92.5764ZM205.891 91.7074C205.348 91.6779 205.064 91.4093 205.086 91.0055C205.115 90.4704 205.558 90.3729 206.137 90.3335L207.347 90.2675L207.33 90.5805C207.287 91.3882 206.594 91.7456 205.891 91.7074Z" fill="#232525"/>
<path d="M211.583 92.7961C211.257 93.4872 211.013 93.6562 210.459 93.6262C210.342 93.6198 210.257 93.6152 210.099 93.5762L210.045 94.5555C210.236 94.5962 210.49 94.6303 210.671 94.6401C211.811 94.6919 212.466 94.2313 213.047 92.9768L215.439 87.8715L214.087 87.7981L212.45 91.5875L212.428 91.5863L211.137 87.638L209.752 87.5628L211.583 92.7961Z" fill="#232525"/>
<path d="M156.717 100.255L159.646 100.414C161.878 100.535 163.09 101.998 162.974 104.136C162.814 107.089 160.641 108.925 157.937 108.778L154.925 108.615L156.717 100.255ZM159.47 101.257L157.557 101.153L156.117 107.827L158.101 107.934C160.262 108.052 161.792 106.488 161.922 104.091C162.013 102.426 161.218 101.352 159.47 101.257ZM168.957 107.623C168.44 108.863 167.319 109.43 166.162 109.367C164.638 109.284 163.722 108.275 163.808 106.692C163.923 104.578 165.425 103.085 167.244 103.183C168.732 103.264 169.411 104.284 169.335 105.69C169.319 105.985 169.265 106.325 169.176 106.652L164.771 106.413C164.754 106.507 164.748 106.613 164.742 106.719C164.681 107.853 165.259 108.536 166.299 108.593C167.09 108.635 167.631 108.274 168.036 107.573L168.957 107.623ZM167.13 103.971C166.15 103.918 165.296 104.594 164.928 105.699L168.376 105.886C168.407 105.758 168.414 105.628 168.417 105.569C168.467 104.647 168.063 104.021 167.13 103.971ZM171.448 108.351L171.208 109.499L170.263 109.447L172.117 100.83L173.109 100.884L172.289 104.654C172.687 104.071 173.393 103.517 174.42 103.573C175.766 103.646 176.637 104.629 176.551 106.212C176.445 108.172 175.121 109.853 173.315 109.755C172.346 109.703 171.624 109.036 171.448 108.351ZM174.142 104.328C172.973 104.264 172.144 105.131 171.835 106.465C171.768 106.828 171.746 107.005 171.737 107.182C171.68 108.221 172.258 108.928 173.238 108.981C174.596 109.055 175.484 107.753 175.57 106.182C175.628 105.107 175.146 104.382 174.142 104.328ZM178.982 102.719L179.236 101.536L180.346 101.597L180.092 102.779L178.982 102.719ZM178.785 103.952L179.777 104.006L178.521 109.896L177.529 109.842L178.785 103.952ZM183.62 109.284L183.459 110.069C183.038 110.188 182.717 110.218 182.41 110.201C181.524 110.153 180.979 109.721 181.025 108.871C181.031 108.764 181.05 108.635 181.08 108.507L181.858 104.865L181.008 104.819L181.155 104.081L182.041 104.129L182.382 102.631L183.327 102.682L182.997 104.181L184.556 104.265L184.409 105.004L182.827 104.918L182.053 108.488C182.036 108.582 182.019 108.676 182.016 108.735C181.991 109.196 182.253 109.376 182.726 109.401C182.974 109.415 183.224 109.381 183.62 109.284Z" fill="#232525"/>
<rect x="309.754" y="86.855" width="66.9158" height="16" rx="8" transform="rotate(3.10723 309.754 86.855)" fill="url(#paint1_linear_3207_11442)"/>
<path fill-rule="evenodd" clip-rule="evenodd" d="M322.348 91.2973C322.542 91.3702 322.666 91.5603 322.654 91.767L322.526 94.1349L324.42 94.2377C324.597 94.2473 324.753 94.3543 324.826 94.5154C324.899 94.6764 324.877 94.8648 324.768 95.0039L321.196 99.5597C321.068 99.7226 320.849 99.7839 320.655 99.711C320.462 99.6382 320.338 99.4481 320.349 99.2414L320.477 96.8735L318.583 96.7707C318.406 96.7611 318.25 96.654 318.177 96.493C318.104 96.3319 318.126 96.1436 318.236 96.0044L321.808 91.4486C321.935 91.2857 322.154 91.2245 322.348 91.2973Z" fill="black"/>
<path d="M329.565 96.968L330.734 97.0315C330.768 97.9218 331.519 98.2649 332.332 98.309C333.108 98.3512 333.73 98.0368 333.766 97.3792C333.792 96.9043 333.523 96.6241 332.745 96.4353L331.561 96.1511C330.611 95.9255 329.86 95.4267 329.922 94.2851C329.984 93.1251 331.051 92.3769 332.476 92.4543C334.029 92.5386 334.923 93.265 334.985 94.4958L333.843 94.4338C333.796 93.79 333.249 93.4031 332.436 93.359C331.65 93.3163 331.135 93.7006 331.104 94.276C331.074 94.8148 331.403 95.0067 332.099 95.1819L333.346 95.4969C334.403 95.7558 335.014 96.3203 334.957 97.3706C334.893 98.5579 333.763 99.2844 332.32 99.2061C330.767 99.1218 329.606 98.4084 329.565 96.968ZM338.828 99.4494C338.796 99.1912 338.791 98.9436 338.803 98.7153C338.556 99.2331 337.955 99.5028 337.215 99.4626C336.311 99.4135 335.68 98.8755 335.726 98.0352C335.776 97.1036 336.528 96.7597 337.475 96.7012L338.871 96.6213L338.883 96.4021C338.914 95.8358 338.582 95.543 338.052 95.5142C337.541 95.4864 337.215 95.7527 337.155 96.18L336.031 96.119C336.186 95.1289 336.994 94.5866 338.136 94.6485C339.396 94.7169 340.085 95.3498 340.02 96.5554L339.923 98.3455C339.899 98.7748 339.898 99.132 339.951 99.5104L338.828 99.4494ZM337.579 98.6671C338.181 98.6998 338.776 98.3749 338.816 97.6442L338.831 97.3611L337.793 97.4238C337.296 97.4609 336.916 97.5502 336.889 98.0343C336.869 98.3996 337.113 98.6418 337.579 98.6671ZM342.422 99.6445L340.847 94.9056L342.025 94.9696L343.123 98.5376L343.141 98.5386L344.592 95.1089L345.733 95.1709L343.701 99.7139L342.422 99.6445ZM350.415 98.6311C350.16 99.6158 349.299 100.128 348.24 100.07C346.888 99.9969 345.941 99.0386 346.024 97.5225C346.106 96.0064 347.17 95.1389 348.476 95.2098C349.928 95.2887 350.562 96.4315 350.495 97.6645L350.475 98.0389L347.141 97.858C347.17 98.6839 347.565 99.1726 348.286 99.2117C348.816 99.2405 349.158 99.0117 349.338 98.5726L350.415 98.6311ZM348.429 96.0775C347.817 96.0443 347.386 96.3964 347.219 97.1019L349.402 97.2204C349.433 96.645 349.132 96.1157 348.429 96.0775ZM353.2 95.4571L353.243 94.6534C354.358 94.7139 354.812 94.4363 355.004 93.7688L355.835 93.8139L355.48 100.353L354.275 100.288L354.533 95.5295L353.2 95.4571ZM359.444 97.0785C358.869 97.0473 358.47 97.3096 358.251 97.6183L357.164 97.5593L357.737 93.9355L361.646 94.1477L361.594 95.1067L358.552 94.9416L358.287 96.631C358.548 96.3703 359.073 96.1424 359.685 96.1756C361.037 96.249 361.852 97.2642 361.783 98.5429C361.714 99.8033 360.756 100.75 359.249 100.668C357.779 100.588 356.883 99.7059 356.851 98.44L358.057 98.5055C358.074 99.1934 358.531 99.7129 359.299 99.7546C360.139 99.8002 360.584 99.2014 360.622 98.489C360.662 97.7675 360.293 97.1246 359.444 97.0785ZM362.751 95.6184C362.797 94.7781 363.519 94.1394 364.35 94.1845C365.181 94.2297 365.82 94.9422 365.775 95.7825C365.729 96.6136 365.017 97.2528 364.186 97.2077C363.355 97.1626 362.706 96.4495 362.751 95.6184ZM367.924 94.4885L368.737 94.5326L364.064 100.81L363.251 100.766L367.924 94.4885ZM363.464 95.657C363.439 96.1228 363.785 96.4989 364.223 96.5227C364.661 96.5465 365.046 96.2101 365.071 95.7443C365.097 95.2785 364.751 94.8933 364.313 94.8695C363.874 94.8457 363.489 95.1912 363.464 95.657ZM366.203 99.534C366.248 98.7028 366.961 98.0545 367.792 98.0996C368.623 98.1447 369.262 98.8664 369.217 99.6976C369.171 100.538 368.459 101.177 367.628 101.132C366.797 101.087 366.157 100.374 366.203 99.534ZM366.906 99.5721C366.881 100.038 367.227 100.423 367.665 100.447C368.112 100.471 368.488 100.125 368.514 99.6594C368.539 99.1936 368.203 98.8089 367.755 98.7846C367.317 98.7608 366.932 99.1063 366.906 99.5721Z" fill="black"/>
</g>
</g>
<defs>
<filter id="filter0_d_3207_11442" x="8.08854" y="1.42692" width="289.268" height="187.495" filterUnits="userSpaceOnUse" color-interpolation-filters="sRGB">
<feFlood flood-opacity="0" result="BackgroundImageFix"/>
<feColorMatrix in="SourceAlpha" type="matrix" values="0 0 0 0 0 0 0 0 0 0 0 0 0 0 0 0 0 0 127 0" result="hardAlpha"/>
<feOffset/>
<feGaussianBlur stdDeviation="8.66667"/>
<feComposite in2="hardAlpha" operator="out"/>
<feColorMatrix type="matrix" values="0 0 0 0 0 0 0 0 0 0 0 0 0 0 0 0 0 0 0.12 0"/>
<feBlend mode="normal" in2="BackgroundImageFix" result="effect1_dropShadow_3207_11442"/>
<feBlend mode="normal" in="SourceGraphic" in2="effect1_dropShadow_3207_11442" result="shape"/>
</filter>
<filter id="filter1_d_3207_11442" x="117.034" y="46.6818" width="291.315" height="191.266" filterUnits="userSpaceOnUse" color-interpolation-filters="sRGB">
<feFlood flood-opacity="0" result="BackgroundImageFix"/>
<feColorMatrix in="SourceAlpha" type="matrix" values="0 0 0 0 0 0 0 0 0 0 0 0 0 0 0 0 0 0 127 0" result="hardAlpha"/>
<feOffset/>
<feGaussianBlur stdDeviation="8.66667"/>
<feComposite in2="hardAlpha" operator="out"/>
<feColorMatrix type="matrix" values="0 0 0 0 0 0 0 0 0 0 0 0 0 0 0 0 0 0 0.12 0"/>
<feBlend mode="normal" in2="BackgroundImageFix" result="effect1_dropShadow_3207_11442"/>
<feBlend mode="normal" in="SourceGraphic" in2="effect1_dropShadow_3207_11442" result="shape"/>
</filter>
<linearGradient id="paint0_linear_3207_11442" x1="201.181" y1="36.898" x2="240.699" y2="69.2639" gradientUnits="userSpaceOnUse">
<stop stop-color="#D6E4E2"/>
<stop offset="0.494792" stop-color="#FFD6B8"/>
<stop offset="1" stop-color="#FFC3A9"/>
</linearGradient>
<linearGradient id="paint1_linear_3207_11442" x1="314.635" y1="88.1539" x2="354.373" y2="121.702" gradientUnits="userSpaceOnUse">
<stop stop-color="#D6E4E2"/>
<stop offset="0.494792" stop-color="#FFD6B8"/>
<stop offset="1" stop-color="#FFC3A9"/>
</linearGradient>
<clipPath id="clip0_3207_11442">
<rect width="416" height="159.467" fill="white" transform="translate(0 0.316895)"/>
</clipPath>
</defs>
</svg>
